<svg xmlns="http://www.w3.org/2000/svg" viewBox="0 0 64 64" width="64" height="64">
  <path d="M44.5 33.5c-.1-5.3 4.3-7.9 4.5-8-2.5-3.6-6.3-4.1-7.6-4.2-3.2-.3-6.4 1.9-8 1.9-1.7 0-4.2-1.9-6.9-1.8-3.5.1-6.8 2.1-8.6 5.2-3.7 6.4-1 15.9 2.6 21.1 1.8 2.5 3.9 5.4 6.6 5.3 2.7-.1 3.7-1.7 6.9-1.7 3.2 0 4.1 1.7 6.9 1.7 2.8 0 4.6-2.6 6.3-5.1 2-2.9 2.8-5.7 2.9-5.8-.1-.1-5.6-2.2-5.6-8.6zM39.3 17.6c1.4-1.8 2.4-4.2 2.1-6.6-2.1.1-4.6 1.4-6.1 3.1-1.3 1.5-2.5 4-2.2 6.3 2.3.2 4.7-1.1 6.2-2.8z" fill="#555555"/>
</svg>