<svg xmlns="http://www.w3.org/2000/svg" viewBox="0 0 64 64" width="64" height="64">
  <g>
    <!-- Google "G" logo -->
    <path d="M32 13.6c5.1 0 8.5 2.2 10.5 4l7.6-7.5C45 5.7 39 3 32 3 20.5 3 10.8 9.6 6.2 19l8.8 6.8C17 19 24 13.6 32 13.6z" fill="#EA4335" transform="scale(0.65) translate(16 17)"/>
    <path d="M61.2 32.7c0-2.3-.2-4-.6-5.8H32v10.6h16.5c-.7 3.8-2.9 7-6.2 9.2l9.5 7.4c5.7-5.3 9.4-13 9.4-21.4z" fill="#4285F4" transform="scale(0.65) translate(16 17)"/>
    <path d="M15 38.2c-1-2.8-1.5-5.8-1.5-9s.5-6.2 1.5-9L6.2 13.4C3.2 19.2 1.5 25.8 1.5 32.7s1.7 13.5 4.7 19.3l8.8-6.8z" fill="#FBBC05" transform="scale(0.65) translate(16 17)"/>
    <path d="M32 62c7 0 13-2.3 17.3-6.3l-9.5-7.4c-2.4 1.6-5.4 2.6-7.8 2.6-8 0-15-5.4-17-12.6l-8.8 6.8C10.8 54.4 20.5 62 32 62z" fill="#34A853" transform="scale(0.65) translate(16 17)"/>
  </g>
</svg>