<svg xmlns="http://www.w3.org/2000/svg" viewBox="0 0 64 64" width="64" height="64">
  <g fill="#CF0A2C">
    <!-- 8-petal flower logo -->
    <path d="M32 8c1.5 0 2.8 3.2 3.5 7.5.4 2.5.6 5.3.5 7.5-.2 3-1.2 5-4 5s-3.8-2-4-5c-.1-2.2.1-5 .5-7.5C29.2 11.2 30.5 8 32 8z"/>
    <path d="M32 36c1.5 0 2.8 3.2 3.5 7.5.4 2.5.6 5.3.5 7.5-.2 3-1.2 5-4 5s-3.8-2-4-5c-.1-2.2.1-5 .5-7.5C29.2 39.2 30.5 36 32 36z" transform="rotate(180 32 32)"/>
    <path d="M32 8c1.5 0 2.8 3.2 3.5 7.5.4 2.5.6 5.3.5 7.5-.2 3-1.2 5-4 5s-3.8-2-4-5c-.1-2.2.1-5 .5-7.5C29.2 11.2 30.5 8 32 8z" transform="rotate(45 32 32)"/>
    <path d="M32 8c1.5 0 2.8 3.2 3.5 7.5.4 2.5.6 5.3.5 7.5-.2 3-1.2 5-4 5s-3.8-2-4-5c-.1-2.2.1-5 .5-7.5C29.2 11.2 30.5 8 32 8z" transform="rotate(90 32 32)"/>
    <path d="M32 8c1.5 0 2.8 3.2 3.5 7.5.4 2.5.6 5.3.5 7.5-.2 3-1.2 5-4 5s-3.8-2-4-5c-.1-2.2.1-5 .5-7.5C29.2 11.2 30.5 8 32 8z" transform="rotate(135 32 32)"/>
    <path d="M32 8c1.5 0 2.8 3.2 3.5 7.5.4 2.5.6 5.3.5 7.5-.2 3-1.2 5-4 5s-3.8-2-4-5c-.1-2.2.1-5 .5-7.5C29.2 11.2 30.5 8 32 8z" transform="rotate(225 32 32)"/>
    <path d="M32 8c1.5 0 2.8 3.2 3.5 7.5.4 2.5.6 5.3.5 7.5-.2 3-1.2 5-4 5s-3.8-2-4-5c-.1-2.2.1-5 .5-7.5C29.2 11.2 30.5 8 32 8z" transform="rotate(270 32 32)"/>
    <path d="M32 8c1.5 0 2.8 3.2 3.5 7.5.4 2.5.6 5.3.5 7.5-.2 3-1.2 5-4 5s-3.8-2-4-5c-.1-2.2.1-5 .5-7.5C29.2 11.2 30.5 8 32 8z" transform="rotate(315 32 32)"/>
  </g>
</svg>