<svg xmlns="http://www.w3.org/2000/svg" viewBox="0 0 64 64" width="64" height="64">
  <g fill="#1A8A3E">
    <path d="M10.5 32c0-4.2 2.8-7 6.6-7s6.6 2.8 6.6 7-2.8 7-6.6 7-6.6-2.8-6.6-7zm10.4 0c0-2.7-1.6-4.5-3.8-4.5s-3.8 1.8-3.8 4.5 1.6 4.5 3.8 4.5 3.8-1.8 3.8-4.5z"/>
    <path d="M25.6 25.3h5.2c3.4 0 5.3 1.8 5.3 4.6s-1.9 4.6-5.3 4.6H28v4.5h-2.4V25.3zm5 7c1.9 0 3-1 3-2.4s-1.1-2.4-3-2.4H28v4.8h2.6z"/>
    <path d="M37.7 25.3h5.2c3.4 0 5.3 1.8 5.3 4.6s-1.9 4.6-5.3 4.6h-2.8v4.5h-2.4V25.3zm5 7c1.9 0 3-1 3-2.4s-1.1-2.4-3-2.4h-2.6v4.8h2.6z"/>
    <path d="M50 32c0-4.2 2-7 5.5-7 3.4 0 5.5 2.8 5.5 7s-2.1 7-5.5 7-5.5-2.8-5.5-7z" transform="translate(-3.5 0)"/>
    <path d="M46.5 32c0-4.2 2.8-7 6.6-7s6.6 2.8 6.6 7-2.8 7-6.6 7-6.6-2.8-6.6-7zm10.4 0c0-2.7-1.6-4.5-3.8-4.5s-3.8 1.8-3.8 4.5 1.6 4.5 3.8 4.5 3.8-1.8 3.8-4.5z"/>
  </g>
</svg>