<svg xmlns="http://www.w3.org/2000/svg" viewBox="0 0 64 64" width="64" height="64">
  <g fill="#F5C518">
    <path d="M10 26h6c3.2 0 5 1.4 5 3.8 0 1.8-1 3-2.8 3.5l3.4 5.7h-3.2L15.4 34H13v5h-3V26zm5.6 5.8c1.4 0 2.2-.6 2.2-1.8s-.8-1.8-2.2-1.8H13v3.6h2.6z"/>
    <path d="M23.5 32.5c0-4 2.6-6.8 6.2-6.8 3.4 0 5.8 2.3 5.8 6v.9H26.3c.2 2.2 1.6 3.5 3.6 3.5 1.5 0 2.6-.7 3.2-1.8l2.2 1.2c-1 2-3 3.2-5.5 3.2-3.8 0-6.3-2.7-6.3-6.2zm9.3-1.4c-.2-1.8-1.4-3-3.1-3-1.7 0-3 1.2-3.3 3h6.4z"/>
    <path d="M37.5 33.5c0-3.4 1.8-5.2 4.5-5.2 1.6 0 2.8.7 3.5 1.8v-1.6h2.7v10.5h-2.7v-1.6c-.7 1.1-1.9 1.8-3.5 1.8-2.7 0-4.5-1.8-4.5-5.2zm8 .3v-.6c-.3-1.8-1.5-2.8-3-2.8-1.8 0-3 1.3-3 3.1 0 1.8 1.2 3.1 3 3.1 1.5 0 2.7-1 3-2.8z"/>
    <path d="M51 26h2.7v13h-2.7z"/>
  </g>
</svg>