<svg xmlns="http://www.w3.org/2000/svg" viewBox="0 0 64 64" width="64" height="64">
  <g fill="#1428A0">
    <path d="M8.5 28.2c-1.2 0-2.4.3-3 1.1-.5.6-.6 1.3-.6 2 0 1.5.7 2.2 2.8 2.9l1.1.4c1 .4 1.5.7 1.5 1.4 0 .8-.7 1.2-1.7 1.2-1.1 0-1.9-.5-2.4-1.4l-2 1.3c.8 1.5 2.3 2.4 4.3 2.4 2.7 0 4.3-1.3 4.3-3.5 0-1.7-.9-2.6-3-3.3l-1.2-.4c-.8-.3-1.3-.5-1.3-1.1 0-.6.5-1 1.3-1 .8 0 1.4.3 1.9 1l1.8-1.3c-.9-1.2-2.1-1.7-3.8-1.7z"/>
    <path d="M17.7 28.4l-3.5 11h2.6l.7-2.3h3.5l.7 2.3h2.7l-3.6-11h-3.1zm-.1 6.8l1.2-3.9h.1l1.2 3.9h-2.5z"/>
    <path d="M25.1 28.4v11h2.5v-4.1l1.1-1.2 3.1 5.3h3l-4.3-7 3.8-4h-3l-3.7 4.2v-4.2h-2.5z"/>
    <path d="M35.3 28.4l2.4 7.3h.1l2.4-7.3h3.5v11h-2.4v-7.6h-.1l-2.5 7.6h-1.9l-2.6-7.6h-.1v7.6H32v-11h3.3z"/>
    <path d="M47.2 28.4v11h2.5v-3.5h1.3c2.6 0 4.3-1.3 4.3-3.8 0-2.4-1.6-3.7-4.2-3.7h-3.9zm2.5 2.1h1.2c1.2 0 1.9.5 1.9 1.6 0 1.1-.7 1.7-1.9 1.7h-1.2v-3.3z"/>
  </g>
</svg>